<?xml version="1.0" encoding="utf-8"?>
<!-- Generator: Adobe Illustrator 19.1.0, SVG Export Plug-In . SVG Version: 6.00 Build 0)  -->
<svg version="1.1" id="Layer_1" xmlns="http://www.w3.org/2000/svg" xmlns:xlink="http://www.w3.org/1999/xlink" x="0px" y="0px"
	 viewBox="0 0 53 50" style="enable-background:new 0 0 53 50;" xml:space="preserve">
<style type="text/css">
	.st0{fill:#FFFFFF;}
</style>
<path class="st0" d="M31.8,29.2c1.2,0.4,2.5,0.1,3.4-0.8c1.3-1.3,1.3-3.5,0-4.8c-1.3-1.3-3.5-1.3-4.8,0L12.7,5.8
	C14,4.4,14,2.3,12.7,1S9.2-0.3,7.9,1C7,1.9,6.7,3.3,7.1,4.4C5.9,4,4.6,4.3,3.6,5.2c-1.3,1.3-1.3,3.5,0,4.8c1.2,1.2,3.1,1.3,4.4,0.3
	l17.9,17.9c-1,1.3-0.9,3.2,0.3,4.4c1.3,1.3,3.5,1.3,4.8,0C32,31.7,32.2,30.4,31.8,29.2z"/>
<g>
	<path class="st0" d="M36,45.7c-1.3-1-3.2-0.9-4.4,0.3c-1.1,1.1-1.3,2.7-0.6,4h9.9L53,37.9v-9.2L36,45.7z"/>
</g>
<path class="st0" d="M40.5,0h-9.9c0.2,0.3,0.3,0.6,0.6,0.8c0.9,0.9,2.3,1.2,3.4,0.8c-0.4,1.2-0.1,2.5,0.8,3.4c1.3,1.3,3.5,1.3,4.8,0
	c1.3-1.3,1.3-3.5,0-4.8L40.5,0z"/>
<path class="st0" d="M10.3,27.6c-0.9-0.9-2.3-1.2-3.4-0.8C7.2,25.7,7,24.3,6,23.4c-1.3-1.3-3.5-1.3-4.8,0c-1.2,1.2-1.3,3.1-0.3,4.4
	l-0.9,1v9.2l5.5-5.5c1.3,1.3,3.5,1.3,4.8,0C11.6,31.1,11.6,28.9,10.3,27.6z"/>
</svg>
